<svg width="10" height="41" viewBox="0 0 10 41" fill="none" xmlns="http://www.w3.org/2000/svg">
<path fill-rule="evenodd" clip-rule="evenodd" d="M4.69422 1.03978L1.57853 32.1834C0.922971 32.839 0.476528 33.6742 0.29566 34.5835C0.11479 35.4928 0.207618 36.4353 0.562404 37.2918C0.91719 38.1483 1.518 38.8804 2.28886 39.3955C3.05971 39.9106 3.96599 40.1855 4.89309 40.1855C5.82019 40.1855 6.72647 39.9106 7.49733 39.3955C8.26818 38.8804 8.86899 38.1483 9.22378 37.2918C9.57856 36.4353 9.67139 35.4928 9.49052 34.5835C9.30966 33.6742 8.86321 32.839 8.20766 32.1834L5.09197 1.03978L4.8931 0.668548L4.69422 1.03978Z" fill="#00C4F0"/>
</svg>
